# xmcd
#
# Track frame offsets:
#	150
#	15274
#	31240
#	46405
#	61497
#	78813
#	92792
#	112236
#	126582
#	143755
#	165183
#	180183
#	198008
#	213382
#	231197
#	247226
#	264855
#	279796
#	295000
#	308928
#
# Disc length: 4334 seconds
#
# Revision: 1
# Processed by: cddbd v1.5.2PL0 Copyright (c) Steve Scherf et al.
# Submitted via: audiograbber 1.83.01
#
DISCID=0a10ec14
DTITLE=Marco Aurélio e Paulo Sérgio - Violada em Campo Grande 2008
DYEAR=1900
DGENRE=
TTITLE0=Amor casual
TTITLE1=Apaixonado por você
TTITLE2=Deixa rolar
TTITLE3=Deletei
TTITLE4=Deusa menina
TTITLE5=Festa na república
TTITLE6=Labirinto
TTITLE7=Mágica ou sonho
TTITLE8=Mil perdões
TTITLE9=Mocinhas da cidade - cabelo loiro - viva a vida
TTITLE10=Não vivo sem você
TTITLE11=Novela das oito
TTITLE12=Por causa dela
TTITLE13=Quem sabe de mim sou eu - Saudade dela
TTITLE14=Saudade de mim - Te amo, e nao te quero
TTITLE15=Só dá você
TTITLE16=Tem jeito não
TTITLE17=Tô de cara
TTITLE18=Você de volta (com MC e R)
TTITLE19=Labirinto (remix)
EXTD=
EXTT0=
EXTT1=
EXTT2=
EXTT3=
EXTT4=
EXTT5=
EXTT6=
EXTT7=
EXTT8=
EXTT9=
EXTT10=
EXTT11=
EXTT12=
EXTT13=
EXTT14=
EXTT15=
EXTT16=
EXTT17=
EXTT18=
EXTT19=
PLAYORDER=
